<?xml version="1.0" encoding="UTF-8"?>
<svg id="Layer_1" data-name="Layer 1" xmlns="http://www.w3.org/2000/svg" viewBox="0 0 358.39 320.56">
  <defs>
    <style>
      .cls-1 {
        fill: none;
        stroke: #00ffff;
        stroke-miterlimit: 10;
        stroke-width: 2px;
      }
    </style>
  </defs>
  <path class="cls-1" d="M23.71,123.92c10.43,0,19.11,7.19,21.96,16.92l96.57,13.33c.7-1.8,1.45-3.59,2.15-5.39L61.14,73.81c-3.59,2.54-7.93,3.95-12.23,3.95-12.62,0-22.71-10.08-22.71-22.71s10.08-22.71,22.71-22.71,22.71,10.08,22.71,22.71c0,2.54-.7,5.04-1.45,7.58l83.25,73.87c5.39-4.69,12.23-7.58,20.56-8.64l-1.1-46.86c-8.99-3.24-15.47-11.53-15.47-21.61,0-12.62,10.08-22.71,22.71-22.71s22.71,10.08,22.71,22.71c0,9.73-6.49,18.37-15.12,21.26l1.1,47.56c4.34,1.1,8.29,2.54,11.88,4.69l65.58-96.22c-2.54-3.59-3.95-7.93-3.95-12.98,0-12.62,10.08-22.71,22.71-22.71s22.71,10.08,22.71,22.71-10.43,22.71-22.71,22.71c-2.54,0-4.69-.35-6.84-1.1l-66.37,97.32c6.14,9.38,6.84,16.57,6.84,27.05l98.02,30.64c3.95-5.39,10.43-8.99,18.02-8.99,12.62,0,22.71,10.08,22.71,22.71s-10.08,22.71-22.71,22.71-22.71-10.08-22.71-22.71l-96.57-30.25c-3.59,9.38-10.78,16.22-20.52,19.46l21.61,51.9c12.98,0,23.76,9.38,23.76,22.71,0,12.62-10.43,22.71-22.71,22.71s-22.71-10.08-22.71-22.71c0-6.84,3.24-13.33,8.29-17.67l-23.06-54.49c-6.84,0-12.62-1.1-18.02-3.59l-74.57,82.5c2.15,3.59,3.59,7.93,3.59,12.23,0,12.62-10.08,22.71-22.71,22.71s-22.71-10.08-22.71-22.71,10.08-22.71,22.71-22.71c2.89,0,5.39.35,7.93,1.45l73.87-82.15c-5.79-6.14-9.03-14.77-9.38-24.86l-96.18-13.33c-3.59,8.29-11.53,14.07-20.91,14.07-12.62,0-22.71-10.43-22.71-22.71,0-12.62,10.08-22.71,22.71-22.71h0ZM179.72,185.16c11.18,0,18.37-7.58,18.37-18.37s-7.19-18.37-18.37-18.37-18.37,7.19-18.37,18.37,7.54,18.37,18.37,18.37Z"/>
</svg>